<svg width="22" height="21" viewBox="0 0 22 21" fill="none" xmlns="http://www.w3.org/2000/svg">
<path d="M18.3462 0.0654297H3.46904C2.69611 0.0654297 1.95483 0.372475 1.40828 0.919019C0.861734 1.46558 0.554688 2.20685 0.554688 2.97979V17.8569C0.554688 18.6299 0.861734 19.3712 1.40828 19.9177C1.95483 20.4642 2.69611 20.7713 3.46904 20.7713H10.2399V13.2137H7.6801V10.2657H10.2399V8.09414C10.2399 6.86343 10.5802 5.90708 11.2609 5.22767C11.9416 4.54696 12.8643 4.20532 14.0303 4.20532C15.1976 4.20532 15.9534 4.25061 16.2989 4.33602V6.96049H14.7434C14.1817 6.96049 13.7987 7.07955 13.5929 7.31767C13.3884 7.55449 13.2862 7.91167 13.2862 8.38661V10.2657H16.2018L15.8136 13.2137H13.2862V20.7713H18.3462C19.1192 20.7713 19.8604 20.4642 20.4069 19.9177C20.9536 19.3712 21.2605 18.6299 21.2605 17.8569V2.97979C21.2605 2.20685 20.9536 1.46558 20.4069 0.919019C19.8604 0.372475 19.1192 0.0654297 18.3462 0.0654297Z" fill="white"/>
</svg>
