<svg width="22" height="22" viewBox="0 0 22 22" fill="none" xmlns="http://www.w3.org/2000/svg">
<path d="M15.5827 21.0837H6.41602C4.95732 21.0837 3.55838 20.5042 2.52693 19.4727C1.49548 18.4413 0.916016 17.0423 0.916016 15.5837V6.41699C0.916016 4.9583 1.49548 3.55935 2.52693 2.5279C3.55838 1.49645 4.95732 0.916992 6.41602 0.916992H15.5827C17.0414 0.916992 18.4403 1.49645 19.4718 2.5279C20.5032 3.55935 21.0827 4.9583 21.0827 6.41699V15.5837C21.0827 17.0423 20.5032 18.4413 19.4718 19.4727C18.4403 20.5042 17.0414 21.0837 15.5827 21.0837ZM6.41602 2.75033C5.44355 2.75033 4.51092 3.13663 3.82329 3.82427C3.13566 4.5119 2.74935 5.44453 2.74935 6.41699V15.5837C2.74935 16.5561 3.13566 17.4887 3.82329 18.1764C4.51092 18.864 5.44355 19.2503 6.41602 19.2503H15.5827C16.5551 19.2503 17.4878 18.864 18.1754 18.1764C18.863 17.4887 19.2493 16.5561 19.2493 15.5837V6.41699C19.2493 5.44453 18.863 4.5119 18.1754 3.82427C17.4878 3.13663 16.5551 2.75033 15.5827 2.75033H6.41602Z" fill="white"/>
<path d="M11 16.5C9.91221 16.5 8.84884 16.1774 7.94437 15.5731C7.0399 14.9687 6.33495 14.1098 5.91867 13.1048C5.50238 12.0998 5.39346 10.9939 5.60568 9.92701C5.8179 8.86011 6.34173 7.8801 7.11092 7.11092C7.8801 6.34173 8.86011 5.8179 9.92701 5.60568C10.9939 5.39346 12.0998 5.50238 13.1048 5.91867C14.1098 6.33495 14.9687 7.0399 15.5731 7.94437C16.1774 8.84884 16.5 9.91221 16.5 11C16.5 12.4587 15.9205 13.8576 14.8891 14.8891C13.8576 15.9205 12.4587 16.5 11 16.5ZM11 7.33334C10.2748 7.33334 9.56589 7.54838 8.96291 7.95128C8.35993 8.35418 7.88997 8.92683 7.61244 9.59683C7.33492 10.2668 7.26231 11.0041 7.40379 11.7153C7.54527 12.4266 7.89448 13.0799 8.40728 13.5927C8.92007 14.1055 9.57341 14.4547 10.2847 14.5962C10.9959 14.7377 11.7332 14.6651 12.4032 14.3876C13.0732 14.11 13.6458 13.6401 14.0487 13.0371C14.4516 12.4341 14.6667 11.7252 14.6667 11C14.6667 10.0275 14.2804 9.09491 13.5927 8.40728C12.9051 7.71964 11.9725 7.33334 11 7.33334Z" fill="white"/>
<path d="M16.4987 5.50033C17.005 5.50033 17.4154 5.08992 17.4154 4.58366C17.4154 4.0774 17.005 3.66699 16.4987 3.66699C15.9924 3.66699 15.582 4.0774 15.582 4.58366C15.582 5.08992 15.9924 5.50033 16.4987 5.50033Z" fill="white"/>
</svg>
